<svg width="8" height="12" viewBox="0 0 8 12" fill="none" xmlns="http://www.w3.org/2000/svg">
<path fill-rule="evenodd" clip-rule="evenodd" d="M0.918216 11.0192C0.675761 10.7421 0.703839 10.321 0.98093 10.0785L5.74087 5.91356L0.98093 1.74861C0.703839 1.50616 0.675761 1.08498 0.918216 0.80789C1.16067 0.530799 1.58185 0.502721 1.85894 0.745175L6.90557 5.16098C7.3609 5.55939 7.3609 6.26772 6.90557 6.66614L1.85894 11.0819C1.58185 11.3244 1.16067 11.2963 0.918216 11.0192Z" fill="black"/>
<path fill-rule="evenodd" clip-rule="evenodd" d="M0.918216 11.0192C0.675761 10.7421 0.703839 10.321 0.98093 10.0785L5.74087 5.91356L0.98093 1.74861C0.703839 1.50616 0.675761 1.08498 0.918216 0.80789C1.16067 0.530799 1.58185 0.502721 1.85894 0.745175L6.90557 5.16098C7.3609 5.55939 7.3609 6.26772 6.90557 6.66614L1.85894 11.0819C1.58185 11.3244 1.16067 11.2963 0.918216 11.0192Z" fill="#2A59FE" fill-opacity="0.3"/>
<path fill-rule="evenodd" clip-rule="evenodd" d="M0.918216 11.0192C0.675761 10.7421 0.703839 10.321 0.98093 10.0785L5.74087 5.91356L0.98093 1.74861C0.703839 1.50616 0.675761 1.08498 0.918216 0.80789C1.16067 0.530799 1.58185 0.502721 1.85894 0.745175L6.90557 5.16098C7.3609 5.55939 7.3609 6.26772 6.90557 6.66614L1.85894 11.0819C1.58185 11.3244 1.16067 11.2963 0.918216 11.0192Z" fill="white" fill-opacity="0.5"/>
</svg>
